<svg width="30" height="30" viewBox="0 0 30 30" fill="none" xmlns="http://www.w3.org/2000/svg">
<rect width="30" height="30" fill="black" fill-opacity="0"/>
<path d="M27.3175 14.4673C26.5029 14.4673 25.7823 14.877 25.3474 15.5017L23.576 15.1934C23.5781 15.1265 23.581 15.0597 23.581 14.9923C23.581 14.2022 23.4251 13.4483 23.1443 12.7585L26.1446 10.9398C26.5483 11.2487 27.0516 11.4325 27.5971 11.4325C28.9221 11.4325 30 10.3495 30 9.01829C30 7.68717 28.9221 6.60425 27.5971 6.60425C26.2721 6.60425 25.1943 7.68717 25.1943 9.01829C25.1943 9.15973 25.2071 9.29809 25.2305 9.43291L22.2451 11.2425C21.3393 10.1331 20.041 9.35915 18.5653 9.13662V5.43328C19.6664 5.06322 20.4627 4.01798 20.4627 2.78877C20.4627 1.25109 19.2175 0 17.6871 0C16.1568 0 14.9117 1.251 14.9117 2.78877C14.9117 4.01798 15.7077 5.06313 16.8089 5.43328V9.13662C14.798 9.43979 13.1177 10.7677 12.3099 12.5722L6.81241 10.8757C6.82892 10.7392 6.8384 10.6005 6.8384 10.4596C6.8384 8.56538 5.30465 7.02426 3.41933 7.02426C1.53384 7.02426 0 8.56538 0 10.4596C0 12.3538 1.53384 13.8948 3.41942 13.8948C4.53654 13.8948 5.53 13.3537 6.15434 12.5188L11.8383 14.2728C11.8098 14.5088 11.7932 14.7486 11.7932 14.9922C11.7932 16.5804 12.4201 18.0235 13.4368 19.088L10.9606 21.7358C10.5992 21.5737 10.1993 21.4828 9.77857 21.4828C8.17324 21.4828 6.86738 22.7949 6.86738 24.4076C6.86738 26.0202 8.17324 27.3322 9.77857 27.3322C11.3836 27.3322 12.6896 26.0202 12.6896 24.4076C12.6896 23.8592 12.5383 23.3457 12.2758 22.9066L14.834 20.1711C15.68 20.6434 16.6525 20.9135 17.6872 20.9135C18.6756 20.9135 19.6073 20.6666 20.4264 20.2328L22.9789 24.1322C22.357 24.7546 21.9715 25.6152 21.9715 26.5646C21.9715 28.4589 23.5054 30 25.3908 30C27.2762 30 28.8102 28.459 28.8102 26.5646C28.8102 24.6705 27.2762 23.1294 25.3908 23.1294C25.0836 23.1294 24.7859 23.171 24.5025 23.2478L21.8436 19.186C22.472 18.5574 22.9592 17.7872 23.2558 16.9283L24.9392 17.2214C25.1043 18.392 26.1077 19.2953 27.3177 19.2953C28.6427 19.2953 29.7206 18.2123 29.7206 16.8811C29.7205 15.5502 28.6425 14.4673 27.3175 14.4673ZM13.5496 14.9922C13.5496 12.7001 15.4057 10.8353 17.687 10.8353C19.9685 10.8353 21.8245 12.7001 21.8245 14.9922C21.8245 17.2842 19.9684 19.1489 17.687 19.1489C15.4057 19.1489 13.5496 17.2842 13.5496 14.9922Z" fill="#757575"/>
</svg>
