<svg width="40" height="40" viewBox="0 0 40 40" fill="none" xmlns="http://www.w3.org/2000/svg">
<rect width="40" height="40" fill="black" fill-opacity="0"/>
<path d="M36.4233 19.2897C35.3373 19.2897 34.3763 19.8361 33.7966 20.669L31.4346 20.2578C31.4375 20.1686 31.4414 20.0796 31.4414 19.9897C31.4414 18.9363 31.2334 17.9311 30.8591 17.0113L34.8595 14.5864C35.3978 14.9983 36.0688 15.2433 36.7961 15.2433C38.5627 15.2433 40 13.7993 40 12.0244C40 10.2496 38.5627 8.80567 36.7961 8.80567C35.0295 8.80567 33.5924 10.2496 33.5924 12.0244C33.5924 12.213 33.6095 12.3974 33.6406 12.5772L29.6601 14.99C28.4523 13.5107 26.7213 12.4789 24.7538 12.1822V7.24437C26.2218 6.75096 27.2836 5.35731 27.2836 3.71836C27.2836 1.66812 25.6234 0 23.5828 0C21.5424 0 19.8823 1.668 19.8823 3.71836C19.8823 5.35731 20.9436 6.75084 22.4118 7.24437V12.1822C19.7307 12.5864 17.4903 14.357 16.4132 16.763L9.08321 14.501C9.10522 14.319 9.11787 14.134 9.11787 13.9462C9.11787 11.4205 7.07286 9.36567 4.55911 9.36567C2.04512 9.36567 0 11.4205 0 13.9462C0 16.4717 2.04512 18.5264 4.55923 18.5264C6.04872 18.5264 7.37334 17.8049 8.20579 16.6917L15.7844 19.0304C15.7463 19.3451 15.7243 19.6648 15.7243 19.9896C15.7243 22.1072 16.5602 24.0314 17.9157 25.4507L14.6141 28.981C14.1323 28.7649 13.5991 28.6437 13.0381 28.6437C10.8976 28.6437 9.15651 30.3931 9.15651 32.5435C9.15651 34.6936 10.8976 36.4429 13.0381 36.4429C15.1782 36.4429 16.9194 34.6936 16.9194 32.5435C16.9194 31.8122 16.7177 31.1276 16.3678 30.5421L19.7786 26.8948C20.9066 27.5245 22.2034 27.8847 23.5829 27.8847C24.9007 27.8847 26.143 27.5555 27.2352 26.977L30.6386 32.1762C29.8094 33.0061 29.2953 34.1536 29.2953 35.4195C29.2953 37.9452 31.3406 40 33.8544 40C36.3683 40 38.4136 37.9453 38.4136 35.4195C38.4136 32.894 36.3683 30.8393 33.8544 30.8393C33.4448 30.8393 33.0479 30.8947 32.67 30.997L29.1248 25.5814C29.9627 24.7432 30.6122 23.7163 31.0078 22.5711L33.2523 22.9618C33.4723 24.5227 34.8103 25.7271 36.4236 25.7271C38.1902 25.7271 39.6275 24.2831 39.6275 22.5082C39.6273 20.7336 38.19 19.2897 36.4233 19.2897ZM18.0662 19.9896C18.0662 16.9335 20.5409 14.4471 23.5827 14.4471C26.6247 14.4471 29.0993 16.9335 29.0993 19.9896C29.0993 23.0456 26.6246 25.5318 23.5827 25.5318C20.5409 25.5318 18.0662 23.0456 18.0662 19.9896Z" fill="white"/>
</svg>
