<?xml version="1.0" encoding="iso-8859-1"?>
<!-- Generator: Adobe Illustrator 19.0.0, SVG Export Plug-In . SVG Version: 6.00 Build 0)  -->
<svg version="1.1" id="Layer_1" xmlns="http://www.w3.org/2000/svg" xmlns:xlink="http://www.w3.org/1999/xlink" x="0px" y="0px"
	 viewBox="0 0 511 511" style="enable-background:new 0 0 511 511;" xml:space="preserve">
<path style="fill:#F3C40F;" d="M511,431c0,44.183-35.817,80-80,80H80c-44.183,0-80-35.817-80-80V104L104,0h327
	c44.183,0,80,35.817,80,80V431z"/>
<path style="fill:#FFD636;" d="M197.962,298.937l-17.574,47.669h-28.649l62.354-167.321h32.501l65.484,167.321H283.91
	l-18.538-47.669H197.962z M206.147,275.344h50.317l-21.908-56.096l-3.853-18.778l-3.852,18.778L206.147,275.344z"/>
<path style="fill:#FFD636;" d="M344.817,176.395c4.01,0,7.38,1.287,10.111,3.853c2.889,2.889,4.333,6.26,4.333,10.111
	c0,4.176-1.444,7.546-4.333,10.111c-2.731,2.569-6.102,3.853-10.111,3.853c-4.176,0-7.546-1.283-10.112-3.853
	c-2.889-2.565-4.333-5.936-4.333-10.111c0-3.852,1.444-7.223,4.333-10.111C337.271,177.682,340.642,176.395,344.817,176.395z
	 M332.298,346.605V225.268h26.242v121.338h-26.242V346.605z"/>
<polygon style="opacity:0.2;fill:#5D5D5D;enable-background:new    ;" points="0,158.733 0,103 55.467,103 "/>
<path style="fill:#FFD636;" d="M0,104h69.334C88.4,104,104,88.666,104,69.6V0L0,104z"/>
<path style="fill:#FFFFFF;" d="M197.962,292.937l-17.574,47.669h-28.649l62.354-167.321h32.501l65.484,167.321H283.91
	l-18.538-47.669H197.962z M206.147,269.344h50.317l-21.908-56.096l-3.853-18.778l-3.852,18.778L206.147,269.344z"/>
<path style="fill:#FFFFFF;" d="M344.817,170.395c4.01,0,7.38,1.287,10.111,3.853c2.889,2.889,4.333,6.26,4.333,10.111
	c0,4.176-1.444,7.546-4.333,10.111c-2.731,2.569-6.102,3.853-10.111,3.853c-4.176,0-7.546-1.283-10.112-3.853
	c-2.889-2.565-4.333-5.936-4.333-10.111c0-3.852,1.444-7.223,4.333-10.111C337.271,171.682,340.642,170.395,344.817,170.395z
	 M332.298,340.605V219.268h26.242v121.338h-26.242V340.605z"/>
<g>
</g>
<g>
</g>
<g>
</g>
<g>
</g>
<g>
</g>
<g>
</g>
<g>
</g>
<g>
</g>
<g>
</g>
<g>
</g>
<g>
</g>
<g>
</g>
<g>
</g>
<g>
</g>
<g>
</g>
</svg>
